<svg width="539" height="344" viewBox="0 0 539 344" fill="none" xmlns="http://www.w3.org/2000/svg">
<path d="M3.13659 0.750487L145.184 0V67.9866H0V0.750487L5.10586 3.48944" fill="#E5E5E6"/>
<path d="M11.1162 154.1V224.736L117.102 224.576V152.888L11.1162 154.1Z" fill="#E5E5E6"/>
<path d="M306.597 17.5627L428.901 16.8122V82.0983H306.597V17.5627Z" fill="#E5E5E6"/>
<path d="M417.13 108.141L539.005 107.39L538.158 181.548L417.624 180.547L417.13 108.141Z" fill="#E5E5E6"/>
<path d="M227.02 325.398H178.667L227.02 343.48H310.843L329.317 325.398H227.02Z" fill="#E5E5E6"/>
<path d="M237.918 182.741C231.631 182.741 220.804 182.144 218.989 185.473C213.748 195.108 215.018 192.767 215.069 192.882L220.631 198.443L196.961 231.574L224.069 263.139L221.208 268.656L224.146 271.606L221.439 274.775L225.961 275.91L291.337 268.829L292.068 243.582L298.746 248.861L311.016 233.774L295.346 205.101L287.411 199.059L275.756 202.016L275.949 205.101L267.533 217.212L239.842 193.966L240.304 184.421L237.911 182.741H237.918Z" fill="#0B418E"/>
<path d="M225.961 275.91L228.931 318.015L249.22 322.319L260.599 284.814L271.048 320.471L292.568 320.164L291.337 268.822L225.961 275.91Z" fill="#F8AF3E"/>
<path d="M228.931 318.015L221.548 325.398V335.847L249.232 336.45L249.22 322.319L228.931 318.015Z" fill="#323B50"/>
<path d="M271.048 320.471C272.601 321.639 292.575 320.164 292.575 320.164L304.557 325.391V336.764H271.048V320.465V320.471Z" fill="#323B50"/>
<path d="M328.034 274.801L320.234 266.982L320.542 259.291L321.927 255.301L330.381 255.904L337.149 263.903V267.591L329.471 275.91" fill="#E7BC9B"/>
<path d="M291.638 258.431C291.279 257.437 324.846 215.012 324.846 215.012L352.832 242.376L336.315 262.915L330.388 255.904L321.934 255.294L320.548 259.291L320.24 266.981L328.04 274.801L315.628 288.495L291.395 266.981L291.645 258.431H291.638Z" fill="#B6B6B8"/>
<path d="M237.918 182.741L230.682 176.006L235.731 171.516L243.96 180.675L247.167 178.206L241.208 169.161L244.788 164.639L234.23 150.553L239.47 139.706L247.899 136.897L258.745 139.148L263.563 131.701L272.966 133.529L281.94 152.522L282.691 143.119L275.013 127.583L275.59 112.124L266.231 120.142L268.906 105.44L258.014 121.669L254.204 108.686L245.801 123.003L239.072 108.635L233.235 131.387L226.776 124.325L225.236 139.078L217.86 138.154L222.337 145.133L221.086 162.349L230.31 174.883" fill="black"/>
<path d="M230.682 176.006L235.73 171.516L243.96 180.675L247.167 178.206L241.208 169.161L244.787 164.639L234.229 150.553L239.47 139.706L248.829 136.897L258.745 139.148L263.563 131.701L272.966 133.529L295.789 177.135L287.418 199.059L275.769 202.016L275.955 205.095L267.539 217.212L239.848 193.966L240.31 184.421L237.905 183.581" fill="#E7BC9B"/>
<path d="M281.94 163.279C283.286 163.279 284.377 162.188 284.377 160.842C284.377 159.496 283.286 158.404 281.94 158.404C280.594 158.404 279.502 159.496 279.502 160.842C279.502 162.188 280.594 163.279 281.94 163.279Z" fill="black"/>
<path d="M260.618 171.708C261.964 171.708 263.056 170.617 263.056 169.27C263.056 167.924 261.964 166.833 260.618 166.833C259.272 166.833 258.181 167.924 258.181 169.27C258.181 170.617 259.272 171.708 260.618 171.708Z" fill="black"/>
<path d="M274.254 162.98L273.821 163.454L280.374 169.443L280.807 168.97L274.254 162.98Z" fill="black"/>
<path d="M280.205 169.105L277.96 175.842L278.569 176.045L280.813 169.308L280.205 169.105Z" fill="black"/>
<path d="M271.748 184.421C271.748 184.37 271.876 184.325 272.03 184.325" stroke="black" stroke-miterlimit="10"/>
<path d="M271.748 184.742V184.101C281.478 184.101 289.31 179.187 289.31 175.12H289.952C289.952 179.572 281.998 184.742 271.748 184.742Z" fill="black"/>
<path d="M250.695 164.78L247.148 162.349L256.006 154.299L259.303 157.667L250.695 164.78Z" fill="black"/>
<path d="M278.989 147.545L280.683 151.496L268.899 153.562L267.912 148.956L278.989 147.545Z" fill="black"/>
<path d="M14.9326 16.8122H132.849" stroke="#969696" stroke-width="2" stroke-miterlimit="10"/>
<path d="M13.9512 33.137H131.861" stroke="#969696" stroke-width="2" stroke-miterlimit="10"/>
<path d="M13.9512 49.4553H131.861" stroke="#969696" stroke-width="2" stroke-miterlimit="10"/>
<path d="M24.9712 176.108H103.907" stroke="#969696" stroke-width="1.64" stroke-miterlimit="10"/>
<path d="M24.3105 192.427H103.247" stroke="#969696" stroke-width="1.64" stroke-miterlimit="10"/>
<path d="M24.3105 208.751H103.247" stroke="#969696" stroke-width="1.64" stroke-miterlimit="10"/>
<path d="M324.558 33.137H411.672" stroke="#969696" stroke-width="1.72" stroke-miterlimit="10"/>
<path d="M323.826 49.4553H410.947" stroke="#969696" stroke-width="1.72" stroke-miterlimit="10"/>
<path d="M323.826 65.78H410.947" stroke="#969696" stroke-width="1.72" stroke-miterlimit="10"/>
<path d="M434.873 131.226H521.987" stroke="#969696" stroke-width="1.72" stroke-miterlimit="10"/>
<path d="M434.142 147.545H521.262" stroke="#969696" stroke-width="1.72" stroke-miterlimit="10"/>
<path d="M434.142 163.869H521.262" stroke="#969696" stroke-width="1.72" stroke-miterlimit="10"/>
</svg>
