<svg width="100" height="213" viewBox="0 0 100 213" fill="none" xmlns="http://www.w3.org/2000/svg">
<g clip-path="url(#clip0_2027_1500)">
<path d="M76.3271 69.057L66.6613 77.7517V83.1647L61.913 87.5928H58.636L40.9448 72.5002L40.1266 66.2678C40.1266 66.2678 29.973 62.1667 24.7289 71.0228V78.2402L0 119.086L23.3423 142.623L24.08 147.051L26.047 148.282L26.2929 155.419H85.2594V149.021L100 121.217L85.997 84.5573L80.5917 80.6217L80.1 73.4851L76.3312 69.057H76.3271Z" fill="#0B418E"/>
<path d="M29.2396 155.419L24.5679 200.442V201.674H49.9982L56.508 165.999L63.8803 201.674H85.0098L83.2887 155.419H29.2396Z" fill="#F8AF3E"/>
<path d="M47.8291 201.674V212.581H18.1826V207.127L24.5674 201.674H47.8291Z" fill="#323B50"/>
<path d="M64.8638 202.493V212.992H91.6444V207.127L85.9932 202.493H64.8638Z" fill="#323B50"/>
<path d="M40.1306 66.2679L40.9488 72.5003L58.6401 87.593H61.9131L66.6654 83.1609V77.7519L76.3273 69.0572L79.1126 65.3193L79.7696 64.4636V31.041L76.5329 25.8743L72.1111 26.7381L65.3554 29.8139L61.7922 29.4426L56.0201 25.8743H44.7177L41.5212 29.4426V48.7574H36.6077V43.0982H28.1309V57.7387H34.3988L40.1306 66.2679Z" fill="#E7BC9D"/>
<path d="M28.1319 43.0982H36.6087V48.7574H41.5222V29.4425L44.7187 25.8742H56.0211L61.7932 29.4425H65.3564L72.9182 26.5806L77.0538 26.7058L79.7706 31.041V39.7761L83.5354 36.0867V28.5828L88.0821 22.31L83.0436 21.3251L82.5559 4.92055L75.51 11.8109L74.5265 0L65.5177 10.1681L64.3729 0L51.2687 11.6454L50.777 2.78925L39.8051 15.7466L33.5775 11.3185L33.0857 20.1746L28.1319 18.3703L30.1392 24.3807L24.7339 30.0157L28.1319 43.0982Z" fill="black"/>
<path d="M59.6238 41.1727H52.2515V43.304H59.6238V41.1727Z" fill="black"/>
<path d="M70.269 43.304V41.1727H77.1496V44.1234L70.269 43.304Z" fill="black"/>
<path d="M56.4073 50.4688C57.3512 50.4688 58.1164 49.7025 58.1164 48.7573C58.1164 47.8121 57.3512 47.0458 56.4073 47.0458C55.4634 47.0458 54.6982 47.8121 54.6982 48.7573C54.6982 49.7025 55.4634 50.4688 56.4073 50.4688Z" fill="black"/>
<path d="M72.7965 50.4688C73.7403 50.4688 74.5055 49.7025 74.5055 48.7573C74.5055 47.8121 73.7403 47.0458 72.7965 47.0458C71.8526 47.0458 71.0874 47.8121 71.0874 48.7573C71.0874 49.7025 71.8526 50.4688 72.7965 50.4688Z" fill="black"/>
<path d="M70.2688 64.9882C64.3153 64.9882 55.4556 64.0074 55.4556 61.3069H56.4189C56.4189 62.4129 61.8162 64.0235 70.2688 64.0235V64.9882Z" fill="black"/>
<path d="M68.1135 50.236L67.2671 50.6966L70.6659 56.9601L71.5123 56.4995L68.1135 50.236Z" fill="black"/>
<path d="M71.123 55.8872L67.9707 57.8736L68.4838 58.6901L71.6361 56.7037L71.123 55.8872Z" fill="black"/>
</g>
<defs>
<clipPath id="clip0_2027_1500">
<rect width="100" height="213" fill="white"/>
</clipPath>
</defs>
</svg>
