<svg width="100" height="215" viewBox="0 0 100 215" fill="none" xmlns="http://www.w3.org/2000/svg">
<g clip-path="url(#clip0_2027_1646)">
<path d="M27.3691 63.9485L40.761 97.0091H43.9655L60.5618 61.453H57.5892L42.5096 74.2989L29.1177 63.9485" fill="#E4E3EB"/>
<path d="M27.3691 66.3338L11.936 75.6435L2.03748 109.525L0 144.013L14.8478 152.742V150.995L16.3036 152.742L16.5963 205.69L42.5096 206.271L46.9723 163.795L57.0685 206.271H81.9402L76.2839 153.03L79.7772 152.449L78.903 146.342L67.5486 130.628L69.586 128.885L83.5633 139.941L100 114.835L84.4376 74.2343L60.5618 62.2582L43.9655 97.7535L28.8668 69.1674L27.3691 66.3338Z" fill="#0B418E"/>
<path d="M28.0798 65.8477L12.1639 75.4156L2.45929 110.071L1.95752 133.42L27.0459 91.9687L28.0798 65.8477Z" fill="#0B418E"/>
<path d="M83.5631 139.941L78.9027 146.342L67.5483 130.628L69.5858 128.885" fill="#E7BC9B"/>
<path d="M42.5097 206.271V215H6.98682V209.473L16.5964 205.69L42.5097 206.271Z" fill="#323B50"/>
<path d="M57.0684 206.271V215H83.5632L84.7264 210.636L80.0698 205.69L57.0684 206.271Z" fill="#323B50"/>
<path d="M42.5095 72.9771L36.1689 79.3127L39.7497 82.8907L42.5095 85.6483L44.6838 83.4757L48.85 79.3127L42.5095 72.9771Z" fill="#F8AF3E"/>
<path d="M47.6225 89.6403L43.9656 97.7535L38.2485 86.9321L39.7272 81.4929H45.8093L47.6225 89.6403Z" fill="#F8AF3E"/>
<path d="M28.08 65.8477L27.3691 66.3338L31.828 74.7737L28.08 65.8477Z" fill="#0B418E"/>
<path d="M11.936 0H64.3479V5.81902H73.0833V27.3479H67.2597V34.9103H64.3479L58.6688 29.2395V14.8362H14.8478V24.1459V15.7098L11.936 0Z" fill="#6B6B6B"/>
<path d="M9.89844 17.4571L14.8477 24.1459V0H9.89844V17.4571Z" fill="#6B6B6B"/>
<path d="M14.8477 24.1459V52.3674L29.1176 61.0542V64.5866L42.5095 74.2343L59.1058 61.0542V56.1506L63.7624 55.8581L69.297 48.3716H73.0831V27.3479H58.6687V14.8362H14.8477V27.158" fill="#E7BC9B"/>
<path d="M69.1031 97.0091L36.9785 95.6189L31.0562 99.6337L31.5427 138.388L36.492 143.626H53.476L59.8812 136.739L57.7449 135.866L65.7047 126.461L67.5483 126.75L77.253 113.463L69.1031 97.0091Z" fill="#B6B6B8"/>
<path d="M65.7048 126.461L57.7449 135.866L60.5616 136.967L53.4761 143.626L54.1565 146.342L58.8777 146.923L61.5956 146.342L61.9833 147.956L75.5577 149.122L79.1955 145.757L80.1002 139.163L68.4569 127.266L65.7048 126.461Z" fill="#E7BC9D"/>
<path d="M60.5616 135.93L53.4761 143.626L73.2427 146.342L60.5616 135.93Z" fill="#E7BC9D"/>
<path d="M1.81299 144.724V153.904C1.81299 153.904 10.6129 165.284 12.4223 162.697C14.2317 160.111 13.1978 157.266 13.1978 157.266L11.7761 154.679L12.2931 152.996L12.4223 151.443L1.81299 144.72V144.724Z" fill="#E7BC9D"/>
<path d="M36.4467 55.634C31.467 55.634 27.9356 52.8536 27.8862 52.808L28.6009 51.923C28.8974 52.1623 35.9525 57.6812 44.1215 51.9002L44.7791 52.8308C41.8103 54.9313 38.9441 55.634 36.4467 55.634Z" fill="black"/>
<path d="M32.7936 41.8043H14.6577V24.2333H32.7936V41.8043ZM16.5926 39.8748H30.8587V26.1666H16.5926V39.8748Z" fill="#808080"/>
<path d="M39.2024 29.5699H31.6606V32.6352H39.2024V29.5699Z" fill="#808080"/>
<path d="M55.4225 41.7891H37.8721V24.2523H55.4225V41.7891ZM39.7727 39.8899H53.5219V26.1514H39.7727V39.8899Z" fill="#808080"/>
<path d="M60.5616 29.5699H55.3843V31.4691H60.5616V29.5699Z" fill="#808080"/>
<path d="M58.6689 27.1048L64.0782 35.7384H67.1002L67.697 27.139L58.6689 27.1048Z" fill="#6B6B6B"/>
<path d="M24.0012 35.0053C25.0992 35.0053 25.9893 34.1159 25.9893 33.0188C25.9893 31.9217 25.0992 31.0323 24.0012 31.0323C22.9033 31.0323 22.0132 31.9217 22.0132 33.0188C22.0132 34.1159 22.9033 35.0053 24.0012 35.0053Z" fill="black"/>
<path d="M47.2307 35.0053C48.3287 35.0053 49.2188 34.1159 49.2188 33.0188C49.2188 31.9217 48.3287 31.0323 47.2307 31.0323C46.1328 31.0323 45.2427 31.9217 45.2427 33.0188C45.2427 34.1159 46.1328 35.0053 47.2307 35.0053Z" fill="black"/>
<path d="M32.6831 48.1209L29.4824 43.6845L32.6679 38.986L34.101 39.9545L31.5959 43.6541L34.0896 47.1106L32.6831 48.1209Z" fill="black"/>
</g>
<defs>
<clipPath id="clip0_2027_1646">
<rect width="100" height="215" fill="white"/>
</clipPath>
</defs>
</svg>
