<svg width="100" height="220" viewBox="0 0 100 220" fill="none" xmlns="http://www.w3.org/2000/svg">
<g clip-path="url(#clip0_2027_1553)">
<path d="M36.1651 75.5953L13.2084 91.3118L0 119.7L18.0825 151.022L28.9305 137.822H83.4885H86.7916L91.8228 145.994L100 122.423L85.2205 86.9116L77.3576 78.1113L68.2377 79.8691L69.1804 80.6235L58.4895 88.7958L36.1651 75.5953Z" fill="#E4E3EB"/>
<path d="M28.9307 137.822H83.4887V143.796H36.4794L28.9307 137.822Z" fill="#323B50"/>
<path d="M46.6681 210.572V220H18.6802V209.63L46.6681 210.572Z" fill="#323B50"/>
<path d="M60.0645 209.476H86.7917L91.7463 214.428V217.963H60.0645V209.476Z" fill="#323B50"/>
<path d="M83.4887 143.796L84.5923 209.476H60.0646L54.7153 163.69L46.6684 210.572L19.125 210.081L24.2137 156.364L36.4795 143.796H83.4887Z" fill="#0B418E"/>
<path d="M19.895 148.816L24.2135 156.364L36.4793 143.796L28.9305 137.822L19.895 148.816Z" fill="#E7BC9D"/>
<path d="M83.4883 137.822H86.7913L91.8226 145.994L83.4883 156.364V137.822Z" fill="#E7BC9D"/>
<path d="M33.6474 51.7104V46.6822H24.8418V62.7127H36.4791V75.5953L58.4893 88.7958L69.1802 80.6235L75.9051 81.2516L87.6574 67.7409V31.4942L81.7717 25.612H40.5639V46.2112L38.9928 51.8674L33.6474 51.7104Z" fill="#E7BC9D"/>
<path d="M68.2378 99.5875H77.986L74.2117 107.549L68.2378 99.5875Z" fill="#F8AF3E"/>
<path d="M81.7721 25.612H40.5643V46.2112L38.9932 51.8674L33.6478 51.7104V46.6822H24.8422C24.8422 46.6822 22.0143 40.5511 23.8995 34.0562C25.7848 27.5613 27.4593 17.0377 42.3461 16.827C57.2329 16.6164 75.8902 16.827 75.8902 16.827L81.7721 25.612Z" fill="#AE884D"/>
<path d="M39.5599 15.8275C39.5599 15.8275 40.1883 4.09379 28.0298 0.532303C15.8713 -3.02918 5.80503 12.4767 8.32256 11.2167L9.79016 54.169H11.6754C11.6754 54.169 21.4505 43.4845 23.8991 34.0562C23.8991 34.0562 26.7691 12.8941 39.556 15.8275H39.5599Z" fill="#AE884D"/>
<path d="M40.6025 16.7351C40.6025 16.7351 26.0223 19.5728 24.1217 33.8609L23.3745 33.0643C23.3745 33.0643 24.2137 11.2742 40.1466 15.9884" fill="#F8AF3E"/>
<path d="M51.6958 42.2821L62.8925 38.5138V42.2821H51.6958Z" fill="#AE884D"/>
<path d="M73.1118 42.2821V38.5138L82.5458 42.2821H73.1118Z" fill="#AE884D"/>
<path d="M58.6464 52.4993C60.0368 52.4993 61.164 51.3729 61.164 49.9833C61.164 48.5937 60.0368 47.4673 58.6464 47.4673C57.256 47.4673 56.1289 48.5937 56.1289 49.9833C56.1289 51.3729 57.256 52.4993 58.6464 52.4993Z" fill="black"/>
<path d="M77.9858 52.4993C79.3762 52.4993 80.5033 51.3729 80.5033 49.9833C80.5033 48.5937 79.3762 47.4673 77.9858 47.4673C76.5954 47.4673 75.4683 48.5937 75.4683 49.9833C75.4683 51.3729 76.5954 52.4993 77.9858 52.4993Z" fill="black"/>
<path d="M72.2841 53.3074L71.1099 53.6736L73.1541 60.2209L74.3283 59.8548L72.2841 53.3074Z" fill="black"/>
<path d="M73.8071 58.6876L68.9321 60.8884L69.4385 62.0087L74.3135 59.8079L73.8071 58.6876Z" fill="black"/>
<path d="M64.6206 67.0324L70.2841 71.1186H72.8783L77.4228 66.7567L64.6206 67.0324Z" fill="#F65945"/>
<path d="M64.6206 66.6227L70.832 64.9147L72.1694 65.7687L73.112 64.9147L77.7639 66.6227C77.7639 66.6227 69.1805 70.2186 64.6206 66.6227Z" fill="#870703"/>
<path d="M70.8818 68.7021C66.5365 68.7021 63.4557 66.2742 63.4097 66.2359L64.0343 65.4623C64.2948 65.6691 70.4488 70.4867 77.5799 65.4432L78.1547 66.255C75.5643 68.0894 73.0621 68.7021 70.8818 68.7021Z" fill="black"/>
</g>
<defs>
<clipPath id="clip0_2027_1553">
<rect width="100" height="220" fill="white"/>
</clipPath>
</defs>
</svg>
